<mxfile host="app.diagrams.net" modified="2023-11-29T13:42:04.980Z" agent="Mozilla/5.0 (X11; Linux x86_64; rv:120.0) Gecko/20100101 Firefox/120.0" version="22.1.4" etag="BLWLBda6dOwA81KPKn73" type="github">
  <diagram name="Страница — 1" id="Fns3yZMFMgsRTfrll8Iq">
    <mxGraphModel>
      <root>
        <mxCell id="0" />
        <mxCell id="1" parent="0" />
      </root>
    </mxGraphModel>
  </diagram>
</mxfile>
